# xmcd
#
# Track frame offsets:
#	150
#	13648
#	56636
#	102418
#	117923
#	153256
#	171713
#	203471
#	225393
#	255188
#	275208
#	291098
#	314793
#
# Disc length: 4409 seconds
#
# Revision: 1
# Processed by: cddbd v1.5.1PL2 Copyright (c) Steve Scherf et al.
# Submitted via: audiograbber 1.83.01
#
DISCID=b711370d
DTITLE=Grand Funk Railroad - The Collection
DYEAR=1980
DGENRE=Rock
TTITLE0=The Locomotion
TTITLE1=Inside Looking Out
TTITLE2=Closer to Home/I´m your Captain
TTITLE3=We´re an American Band
TTITLE4=Paranoid
TTITLE5=Walk like a Man (You can Call me your Man)
TTITLE6=Creepin´
TTITLE7=Sin is an Goodman´s Brother
TTITLE8=Heartbreaker
TTITLE9=Mr. Limousine Driver
TTITLE10=Are you Ready
TTITLE11=Nothing is the Same
TTITLE12=Aimless Lady
EXTD=
EXTT0=
EXTT1=
EXTT2=
EXTT3=
EXTT4=
EXTT5=
EXTT6=
EXTT7=
EXTT8=
EXTT9=
EXTT10=
EXTT11=
EXTT12=
PLAYORDER=
